<?xml version="1.0" encoding="utf-8"?>
<svg version="1.1" baseProfile="tiny" id="Layer_1" xmlns="http://www.w3.org/2000/svg" xmlns:xlink="http://www.w3.org/1999/xlink"
	 x="0px" y="0px" width="500px" height="500px" viewBox="0 0 500 500" overflow="visible" xml:space="preserve">
<g transform="translate(18, 8)"> <!-- Slight offset to center visually if needed, circle is at 231,242 -->
	<!-- The Blue Circle -->
	<circle fill="#001AED" cx="231.649" cy="242.136" r="203.555"/>
	
	<!-- The White Butterfly -->
	<path fill="#FFFFFF" d="M391.95,238.57c-73.139-18.313-120.339-13.123-153.25,16.934c0.078-4.136-0.12-7.722-0.587-10.66
		c-0.022-0.254-0.05-0.498-0.09-0.72c-0.553-3.012,17.241-27.283,31.541-31.878c1.576-0.507,2.232,0.551,3.631-0.146
		c1.398-0.697,2.624-2.868-1.245-3.625c-3.745-0.732-17.237,2.609-36.12,29.596c-0.675-0.955-1.463-1.59-2.378-1.835
		c-0.71-0.19-1.471-0.14-2.272,0.117c-2.861-32.807-12.873-42.445-16.482-43.684c-3.729-1.28-3.752,1.213-2.89,2.516
		c0.863,1.304,1.959,0.715,3.071,1.942c9.407,10.38,12.887,37.091,11.704,42.536c-2.375,2.512-4.933,6.287-7.545,11.071
		c-13.171-42.662-51.612-71.029-124.43-91.837c-4.812-1.375-9.753,1.642-10.752,6.545c-17.377,85.277,51.989,133.355,51.989,133.355
		c-12.101,13.983-21.681,30.383-27.862,48.732c-1.623,4.817,1.356,10.006,6.333,11.037c27.538,5.705,54.993,3.83,79.956-4.273
		c0.697,5.733,2.304,9.338,4.861,10.023c2.522,0.676,5.664-1.565,9.078-6.055c17.531,19.355,40.275,34.591,66.839,43.374
		c4.825,1.595,9.998-1.41,11.001-6.392c3.821-18.982,3.725-37.974,0.237-56.135c0,0,84.111-6.954,111.701-89.494
		C399.574,244.869,396.804,239.785,391.95,238.57z"/>
</g>
</svg>
