<?xml version="1.0" encoding="UTF-8"?>
<svg id="Layer_1" xmlns="http://www.w3.org/2000/svg" version="1.1" viewBox="0 0 2000 400">
  <!-- Generator: Adobe Illustrator 29.8.2, SVG Export Plug-In . SVG Version: 2.1.1 Build 3)  -->
  <defs>
    <style>
      .st0 {
        fill: #0e82ff;
      }
    </style>
  </defs>
  <g>
    <path d="M387.5,284.5v-41.1h17c1.2,24.1,12.9,33.8,35.5,33.8s33.6-11.2,33.6-28.7-4.6-20.7-31.6-30.2l-9.2-3.2c-33.3-11.7-42.3-26.7-42.3-47.7s25.8-50.1,64.7-50.1,31.4,2.2,47.9,8v39.9h-16.5c-1.5-21.9-12.6-31.4-34-31.4s-29.4,10.7-29.4,22.9,4.6,18.5,31.1,27.7l9.2,3.2c33.8,11.7,43.8,28.4,43.8,50.8s-23.8,55.7-69.1,55.7-35.3-2.7-50.6-9.7Z"/>
    <path d="M524.4,279c15.6-.7,18.2-5.6,21.9-17l46.4-141.8h35.3l50.6,139.8c5.6,15.8,8.5,18.2,22.4,19v12.6h-76.1v-12.6c14.3-.7,18.7-3.6,18.7-8.5s-.5-4.6-4.4-16l-6.6-19.2h-54.7l-5.6,19c-3.2,11.9-3.6,14.1-3.6,16,0,5.3,4.4,7.8,19.7,8.8v12.6h-64v-12.6ZM627.2,218.2l-24.3-69.8-20.7,69.8h45Z"/>
    <path d="M733.5,279c17.8-1,21.2-3.9,21.6-10,.5-6.1.5-11.4.5-22.4v-110.6h-17c-19.2,0-23.3,7.8-23.6,26.5h-16v-42.3h148.1v42.3h-16c-.2-18.7-4.6-26.5-23.8-26.5h-17v110.6c0,10.9,0,16.3.5,22.4.5,6.1,4.1,9,21.6,10v12.6h-78.8v-12.6Z"/>
    <path d="M1025.8,269c.5-6.1.5-11.4.5-22.4v-81.5c0-10.9,0-16.3-.5-22.4-.5-6.1-3.6-9-24.1-10v-12.6c5.8,0,21.2.2,35,.2s25.8-.2,40.1-.2c36.5,0,62.5,10.7,62.5,43.5s-10.5,32.3-35.7,36.5v.5c34.8,3.2,47.2,21.4,47.2,41.8,0,29.2-22.9,49.1-66.4,49.1h-80.2v-12.6c17.5-1,21.2-3.9,21.6-10ZM1070,136.5c-2.9,0-6.1.2-9.2.7v58.4h14.6c17.5,0,28.7-10.5,28.7-28.4s-15.1-30.6-34-30.6ZM1073.2,211.8h-12.4v60.1c7.8,2.4,14.1,3.2,19.7,3.2,19.9,0,35-9.7,35-30.4s-18.5-32.8-42.3-32.8Z"/>
    <path d="M1264.3,294.5c-43.5,0-80.2-26.5-80.2-88.8s35.7-88.5,85.3-88.5,81.9,24.1,81.9,85.1-34.3,92.2-87,92.2ZM1265,135.7c-26.7,0-44.3,19.9-44.3,65.4s20.2,74.9,45,74.9h2.2c27,0,46.7-24.1,46.7-71.2s-18-69.1-49.6-69.1Z"/>
    <path d="M1379.1,279c17.5-1,21.2-3.9,21.6-10,.5-6.1.5-11.4.5-22.4v-81.5c0-10.9,0-16.3-.5-22.4-.5-6.1-4.1-9-21.6-10v-12.6h78.8v12.6c-17.7,1-21.2,3.9-21.6,10-.5,6.1-.5,11.4-.5,22.4v81.5c0,10.9,0,16.3.5,22.4.5,6.1,3.9,9,21.6,10v12.6h-78.8v-12.6ZM1531.5,291.6c-22.6,0-30.4-2.9-45.7-23.1l-47.4-62.7,48.6-49.6c12.2-12.6,13.4-15.8,13.4-17.7s-.7-4.4-8.3-4.9l-8.8-.7v-12.6h71v12.6c-12.9.5-18.5,3.4-35.5,19.7l-45.7,43.3,48.4,56.2c20.9,24.3,23.3,25.5,37,27v12.6h-27Z"/>
    <path d="M1591.8,226.2v-61c0-10.9,0-16.3-.5-22.4-.5-6.1-4.1-9-21.6-10v-12.6h78.8v12.6c-17.7,1-21.2,3.9-21.6,10-.5,6.1-.5,11.4-.5,22.4v55.7c0,33.1,13.1,53.5,47.2,53.5s41.8-15.3,41.8-45.2v-63.9c0-10.9,0-16.3-.5-22.4s-3.9-9-21.4-10v-12.6h67.8v12.6c-17.5,1-20.9,3.9-21.4,10-.5,6.1-.5,11.4-.5,22.4v55.4c0,48.4-27,73.9-74.2,73.9s-73.4-22.4-73.4-68.3Z"/>
    <path d="M1783.7,279c17.7-1,21.2-3.9,21.6-10,.5-6.1.5-11.4.5-22.4v-81.5c0-10.9,0-16.3-.5-22.4s-3.9-9-24.1-10v-12.6h58.6l89.2,122.1v-77.1c0-10.9,0-16.3-.5-22.4-.5-6.1-3.9-9-22.4-10v-12.6h64.4v12.6c-17.5,1-20.9,3.9-21.4,10-.5,6.1-.5,11.4-.5,22.4v126.4h-27l-96.3-132.3v87.3c0,10.9,0,16.3.5,22.4.5,6.1,3.9,9,23.3,10v12.6h-65.7v-12.6Z"/>
  </g>
  <path d="M918.2,208.6h-40.2v-13.6h40.2v-37.9h14.4v37.9h40.2v13.6h-40.2v37.9h-14.4v-37.9Z"/>
  <path class="st0" d="M169.5,59.9c-77.4,0-140.1,62.7-140.1,140.1s62.7,140.1,140.1,140.1,140.1-62.7,140.1-140.1S246.9,59.9,169.5,59.9ZM206,254.9c-2,0-3.6,1.6-3.5,3.6.5,11-1,22.2-4.7,33.1-.7,1.9-2.8,3-4.7,2.2-15.6-6.6-28.6-16.8-38.4-29.2-1.1-1.4-3.2-1.6-4.7-.6-1.3.9-2.5,1.2-3.5.9-1-.4-1.7-1.5-2-3.2-.4-1.8-2.2-2.9-4.1-2.6-15.6,2.7-32.1,1.6-48.1-3.9-1.9-.7-2.8-2.9-2-4.7,4.6-10.6,11-19.9,18.7-27.7,1.4-1.4,1.3-3.7-.2-5-28.4-26.7-41.3-63.5-30.4-96.5.6-1.9,2.8-3,4.7-2.2,42,16.9,72.7,44.6,81.4,70.5.8,2.5,4,3.2,5.8,1.3.2-.2.3-.3.5-.5.6-.6,1-1.3,1.1-2.1.7-5.2-.1-19.4-4.8-25.7-.6-.8-1.3-.5-1.8-1.4-.4-.9-.3-2.4,2-1.4,2.2,1,7.7,7.6,7.4,28.1.5-.1,1,0,1.4,0,.6.2,1,.7,1.4,1.3,13.5-15.5,22-16.7,24.3-16,2.3.7,1.4,2,.5,2.3-.9.3-1.2-.4-2.3-.1-9.2,1.9-21.8,15.8-21.6,17.7,0,.1,0,.3,0,.5,0,0,0,0,0,.1.1,2.6,2.9,4.3,5.2,3,23.9-13.3,65.1-13.2,107.5,2.2,1.9.7,2.8,2.9,2,4.8-14,31.8-48.2,50.5-87.2,51.4Z"/>
</svg>