<?xml version="1.0" encoding="utf-8"?>
<!-- Generator: Adobe Illustrator 29.8.2, SVG Export Plug-In . SVG Version: 9.03 Build 0)  -->
<svg version="1.1" baseProfile="tiny" id="Layer_1" xmlns="http://www.w3.org/2000/svg" xmlns:xlink="http://www.w3.org/1999/xlink"
	 x="0px" y="0px" width="2668.615px" height="484.272px" viewBox="0 0 2668.615 484.272" overflow="visible" xml:space="preserve">
<g>
	<circle fill="#001AED" cx="231.649" cy="242.136" r="203.555"/>
	<path fill="#001AED" d="M508.325,315.704l57.046-32.26c9.509,15.961,32.598,27.165,56.03,27.165
		c21.052,0,35.655-5.094,35.655-12.562c0-31.583-148.731-3.398-148.731-95.08c0-43.465,45.841-74.025,110.696-74.025
		c41.088,0,83.534,22.413,102.89,53.992l-53.65,35.652c-11.205-15.619-32.26-26.824-50.935-26.824
		c-22.071,0-37.693,6.11-37.693,14.6c0,31.58,149.069-3.395,149.069,94.739c0,42.446-45.841,72.329-110.696,72.329
		C571.143,373.431,525.643,349.66,508.325,315.704z"/>
	<path fill="#001AED" d="M787.456,132.338h68.592l70.63,237.698H854.01l-7.809-32.94h-48.559l-7.809,32.94h-73.006L787.456,132.338z
		 M831.259,275.974l-9.509-39.728l-9.509,39.728H831.259z"/>
	<path fill="#001AED" d="M946.382,200.252h-61.124v-67.915h193.556v67.915h-61.124v169.783h-71.307V200.252z"/>
	<path d="M1138.586,250.846c-6.857-126.324,175.152-172.022,226.828-52.632l-65.874,30.561
		c-22.007-51.81-90.353-31.807-87.947,22.411c-1.867,54.091,66.387,75.972,89.643,21.393l69.953,21.052
		C1322.741,426.799,1132.995,381.952,1138.586,250.846z"/>
	<path d="M1365.424,254.242c-4.167-165.321,242.377-165.581,238.036,0.006C1607.747,411.709,1361.271,411.432,1365.424,254.242z
		 M1530.454,254.583c1.572-74.166-93.654-73.817-92.023,0.002C1436.826,319.404,1531.994,319.738,1530.454,254.583z"/>
	<path d="M1611.279,132.338h57.726l77.082,110.361V132.338h71.31v237.698h-58.065l-76.743-110.699v110.699h-71.31V132.338z"/>
	<path d="M1829.285,132.338h57.726l77.082,110.361V132.338h71.31v237.698h-58.065l-76.743-110.699v110.699h-71.31V132.338z"/>
	<path d="M2047.294,132.338h168.425v67.915h-97.115v17.657h92.024v67.912h-92.024v16.299h100.51v67.915h-171.82V132.338z"/>
	<path d="M2223.538,250.846c-6.857-126.324,175.152-172.022,226.829-52.632l-65.874,30.561
		c-22.007-51.81-90.353-31.807-87.947,22.411c-1.867,54.091,66.387,75.972,89.643,21.393l69.953,21.052
		C2407.693,426.799,2217.947,381.952,2223.538,250.846z"/>
	<path d="M2508.102,200.252h-61.125v-67.915h193.556v67.915h-61.124v169.783h-71.307V200.252z"/>
	<path fill="#FFFFFF" d="M391.95,238.57c-73.139-18.313-120.339-13.123-153.25,16.934c0.078-4.136-0.12-7.722-0.587-10.66
		c-0.022-0.254-0.05-0.498-0.09-0.72c-0.553-3.012,17.241-27.283,31.541-31.878c1.576-0.507,2.232,0.551,3.631-0.146
		c1.398-0.697,2.624-2.868-1.245-3.625c-3.745-0.732-17.237,2.609-36.12,29.596c-0.675-0.955-1.463-1.59-2.378-1.835
		c-0.71-0.19-1.471-0.14-2.272,0.117c-2.861-32.807-12.873-42.445-16.482-43.684c-3.729-1.28-3.752,1.213-2.89,2.516
		c0.863,1.304,1.959,0.715,3.071,1.942c9.407,10.38,12.887,37.091,11.704,42.536c-2.375,2.512-4.933,6.287-7.545,11.071
		c-13.171-42.662-51.612-71.029-124.43-91.837c-4.812-1.375-9.753,1.642-10.752,6.545c-17.377,85.277,51.989,133.355,51.989,133.355
		c-12.101,13.983-21.681,30.383-27.862,48.732c-1.623,4.817,1.356,10.006,6.333,11.037c27.538,5.705,54.993,3.83,79.956-4.273
		c0.697,5.733,2.304,9.338,4.861,10.023c2.522,0.676,5.664-1.565,9.078-6.055c17.531,19.355,40.275,34.591,66.839,43.374
		c4.825,1.595,9.998-1.41,11.001-6.392c3.821-18.982,3.725-37.974,0.237-56.135c0,0,84.111-6.954,111.701-89.494
		C399.574,244.869,396.804,239.785,391.95,238.57z"/>
</g>
</svg>
